<?xml version="1.0" encoding="UTF-8" standalone="no"?>
<svg
   viewBox="0 0 100 100"
   fill="none"
   x="0px"
   y="0px"
   version="1.1"
   id="svg71"
   sodipodi:docname="camera.svg"
   width="100"
   height="100"
   inkscape:version="1.1.2 (0a00cf5339, 2022-02-04)"
   xmlns:inkscape="http://www.inkscape.org/namespaces/inkscape"
   xmlns:sodipodi="http://sodipodi.sourceforge.net/DTD/sodipodi-0.dtd"
   xmlns="http://www.w3.org/2000/svg"
   xmlns:svg="http://www.w3.org/2000/svg">
  <defs
     id="defs75" />
  <sodipodi:namedview
     id="namedview73"
     pagecolor="#ffffff"
     bordercolor="#666666"
     borderopacity="1.0"
     inkscape:pageshadow="2"
     inkscape:pageopacity="0.0"
     inkscape:pagecheckerboard="0"
     showgrid="false"
     inkscape:zoom="1.6291667"
     inkscape:cx="7.0588235"
     inkscape:cy="66.905371"
     inkscape:window-width="1920"
     inkscape:window-height="949"
     inkscape:window-x="0"
     inkscape:window-y="0"
     inkscape:window-maximized="1"
     inkscape:current-layer="svg71" />
  <g
     id="g340"
     transform="matrix(3.7727328,0,0,3.8725655,5.9883154,4.9857363)">
    <path
       fill-rule="evenodd"
       clip-rule="evenodd"
       d="M 10.2361,5.75 C 9.7626,5.75 9.32977,6.0175 9.11803,6.44098 L 8.17082,8.33541 C 8.04378,8.5895 7.78408,8.75 7.5,8.75 H 5 C 4.30964,8.75 3.75,9.30964 3.75,10 v 9 c 0,0.6904 0.55964,1.25 1.25,1.25 h 14 c 0.6904,0 1.25,-0.5596 1.25,-1.25 V 9.5 c 0,-0.41421 0.3358,-0.75 0.75,-0.75 0.4142,0 0.75,0.33579 0.75,0.75 V 19 c 0,1.5188 -1.2312,2.75 -2.75,2.75 H 5 C 3.48122,21.75 2.25,20.5188 2.25,19 V 10 C 2.25,8.48122 3.48122,7.25 5,7.25 H 7.03647 L 7.77639,5.77016 C 8.24222,4.83851 9.19445,4.25 10.2361,4.25 H 13.5 c 0.4142,0 0.75,0.33579 0.75,0.75 0,0.41421 -0.3358,0.75 -0.75,0.75 z"
       fill="#000000"
       id="path59" />
    <path
       fill-rule="evenodd"
       clip-rule="evenodd"
       d="m 12,10.75 c -1.7949,0 -3.25,1.4551 -3.25,3.25 0,1.7949 1.4551,3.25 3.25,3.25 1.7949,0 3.25,-1.4551 3.25,-3.25 0,-1.7949 -1.4551,-3.25 -3.25,-3.25 z M 7.25,14 c 0,-2.6234 2.12665,-4.75 4.75,-4.75 2.6234,0 4.75,2.1266 4.75,4.75 0,2.6234 -2.1266,4.75 -4.75,4.75 -2.62335,0 -4.75,-2.1266 -4.75,-4.75 z"
       fill="#000000"
       id="path61" />
    <path
       fill-rule="evenodd"
       clip-rule="evenodd"
       d="m 16.25,5 c 0,-0.41421 0.3358,-0.75 0.75,-0.75 h 4 c 0.4142,0 0.75,0.33579 0.75,0.75 0,0.41421 -0.3358,0.75 -0.75,0.75 H 17 C 16.5858,5.75 16.25,5.41421 16.25,5 Z"
       fill="#000000"
       id="path63" />
    <path
       fill-rule="evenodd"
       clip-rule="evenodd"
       d="M 19,7.75 C 18.5858,7.75 18.25,7.41421 18.25,7 V 3 c 0,-0.41421 0.3358,-0.75 0.75,-0.75 0.4142,0 0.75,0.33579 0.75,0.75 v 4 c 0,0.41421 -0.3358,0.75 -0.75,0.75 z"
       fill="#000000"
       id="path65" />
  </g>
</svg>
