<?xml version="1.0" encoding="UTF-8" standalone="no"?>
<!-- Created with Inkscape (http://www.inkscape.org/) -->

<svg
   width="100"
   height="100"
   viewBox="0 0 26.458333 26.458333"
   version="1.1"
   id="svg5"
   inkscape:version="1.1.2 (0a00cf5339, 2022-02-04)"
   sodipodi:docname="events.svg"
   xmlns:inkscape="http://www.inkscape.org/namespaces/inkscape"
   xmlns:sodipodi="http://sodipodi.sourceforge.net/DTD/sodipodi-0.dtd"
   xmlns="http://www.w3.org/2000/svg"
   xmlns:svg="http://www.w3.org/2000/svg">
  <sodipodi:namedview
     id="namedview7"
     pagecolor="#ffffff"
     bordercolor="#666666"
     borderopacity="1.0"
     inkscape:pageshadow="2"
     inkscape:pageopacity="0.0"
     inkscape:pagecheckerboard="0"
     inkscape:document-units="mm"
     showgrid="false"
     units="px"
     width="1e-05mm"
     inkscape:zoom="2.7865881"
     inkscape:cx="186.78756"
     inkscape:cy="70.336911"
     inkscape:window-width="1920"
     inkscape:window-height="949"
     inkscape:window-x="0"
     inkscape:window-y="0"
     inkscape:window-maximized="1"
     inkscape:current-layer="g772" />
  <defs
     id="defs2" />
  <g
     inkscape:label="Layer 1"
     inkscape:groupmode="layer"
     id="layer1">
    <g
       id="g772"
       transform="matrix(0.26458333,0,0,0.26458333,41.099088,11.322027)">
      <g
         id="g4924"
         transform="matrix(2.9707752,0,0,2.9707752,-151.31976,-39.047473)">
        <path
           d="m 9.056,7.176 c 0.476,0 0.862,-0.385 0.862,-0.862 V 2.862 C 9.918,2.387 9.532,2 9.056,2 H 8.625 C 8.148,2 7.761,2.387 7.761,2.862 v 3.451 c 0,0.478 0.387,0.862 0.864,0.862 h 0.431 z"
           id="path700" />
        <path
           d="m 21,7.176 c 0.476,0 0.862,-0.385 0.862,-0.862 V 2.862 C 21.862,2.387 21.476,2 21,2 h -0.432 c -0.477,0 -0.863,0.387 -0.863,0.862 v 3.451 c 0,0.478 0.386,0.862 0.863,0.862 H 21 Z"
           id="path702" />
        <path
           d="m 12.357,11.556 c 0,-0.214 -0.175,-0.388 -0.389,-0.388 H 9.747 c -0.214,0 -0.389,0.174 -0.389,0.388 v 1.687 c 0,0.215 0.174,0.389 0.389,0.389 h 2.221 c 0.214,0 0.389,-0.174 0.389,-0.389 z"
           id="path704" />
        <path
           d="m 16.307,11.556 c 0,-0.214 -0.174,-0.388 -0.388,-0.388 h -2.182 c -0.213,0 -0.387,0.174 -0.387,0.388 v 1.687 c 0,0.215 0.174,0.389 0.387,0.389 h 2.182 c 0.214,0 0.388,-0.174 0.388,-0.389 z"
           id="path706" />
        <path
           d="m 17.691,11.168 c -0.213,0 -0.388,0.174 -0.388,0.388 v 1.687 c 0,0.215 0.174,0.389 0.388,0.389 h 2.182 c 0.214,0 0.388,-0.174 0.388,-0.389 v -1.687 c 0,-0.214 -0.173,-0.388 -0.388,-0.388 z"
           id="path708" />
        <path
           d="m 24.215,11.556 c 0,-0.214 -0.174,-0.388 -0.389,-0.388 h -2.18 c -0.214,0 -0.389,0.174 -0.389,0.388 v 1.687 c 0,0.215 0.175,0.389 0.389,0.389 h 2.18 c 0.214,0 0.389,-0.174 0.389,-0.389 z"
           id="path710" />
        <path
           d="m 8.366,15.008 c 0,-0.214 -0.174,-0.389 -0.39,-0.389 H 5.797 c -0.214,0 -0.39,0.175 -0.39,0.389 v 1.686 c 0,0.215 0.175,0.389 0.39,0.389 h 2.179 c 0.215,0 0.39,-0.174 0.39,-0.389 z"
           id="path712" />
        <path
           d="m 12.357,15.008 c 0,-0.214 -0.175,-0.389 -0.389,-0.389 H 9.747 c -0.214,0 -0.389,0.175 -0.389,0.389 v 1.686 c 0,0.215 0.174,0.389 0.389,0.389 h 2.221 c 0.214,0 0.389,-0.174 0.389,-0.389 z"
           id="path714" />
        <path
           d="m 16.307,15.008 c 0,-0.214 -0.174,-0.389 -0.388,-0.389 h -2.182 c -0.213,0 -0.387,0.175 -0.387,0.389 v 1.686 c 0,0.215 0.174,0.389 0.387,0.389 h 2.182 c 0.214,0 0.388,-0.174 0.388,-0.389 z"
           id="path716" />
        <path
           d="m 19.873,17.082 c 0.214,0 0.388,-0.174 0.388,-0.389 v -1.686 c 0,-0.214 -0.173,-0.389 -0.388,-0.389 h -2.182 c -0.213,0 -0.388,0.175 -0.388,0.389 v 1.686 c 0,0.215 0.174,0.389 0.388,0.389 z"
           id="path718" />
        <path
           d="m 23.826,14.619 h -2.18 c -0.214,0 -0.389,0.174 -0.389,0.389 v 1.686 c 0,0.215 0.175,0.389 0.389,0.389 h 2.18 c 0.214,0 0.389,-0.174 0.389,-0.389 v -1.686 c 0,-0.215 -0.174,-0.389 -0.389,-0.389 z"
           id="path720" />
        <path
           d="m 8.366,18.461 c 0,-0.215 -0.174,-0.388 -0.39,-0.388 H 5.797 c -0.214,0 -0.39,0.173 -0.39,0.388 v 1.686 c 0,0.215 0.175,0.389 0.39,0.389 h 2.179 c 0.215,0 0.39,-0.174 0.39,-0.389 z"
           id="path722" />
        <path
           d="m 12.357,18.461 c 0,-0.215 -0.175,-0.388 -0.389,-0.388 H 9.747 c -0.214,0 -0.389,0.173 -0.389,0.388 v 1.686 c 0,0.215 0.174,0.389 0.389,0.389 h 2.221 c 0.214,0 0.389,-0.174 0.389,-0.389 z"
           id="path724" />
        <path
           d="m 16.307,18.461 c 0,-0.215 -0.174,-0.388 -0.388,-0.388 h -2.182 c -0.213,0 -0.387,0.173 -0.387,0.388 v 1.686 c 0,0.215 0.174,0.389 0.387,0.389 h 2.182 c 0.214,0 0.388,-0.174 0.388,-0.389 z"
           id="path726" />
        <path
           d="m 7.977,21.525 h -2.18 c -0.214,0 -0.39,0.174 -0.39,0.388 v 1.686 c 0,0.214 0.175,0.388 0.39,0.388 h 2.179 c 0.215,0 0.39,-0.174 0.39,-0.388 v -1.686 c 0,-0.214 -0.174,-0.388 -0.389,-0.388 z"
           id="path728" />
        <path
           d="M 11.968,21.525 H 9.747 c -0.214,0 -0.389,0.174 -0.389,0.388 v 1.686 c 0,0.214 0.174,0.388 0.389,0.388 h 2.221 c 0.214,0 0.389,-0.174 0.389,-0.388 v -1.686 c 0,-0.214 -0.175,-0.388 -0.389,-0.388 z"
           id="path730" />
        <path
           d="m 15.919,21.525 h -2.182 c -0.213,0 -0.387,0.174 -0.387,0.388 v 1.686 c 0,0.214 0.174,0.388 0.387,0.388 h 2.182 c 0.214,0 0.388,-0.174 0.388,-0.388 v -1.686 c 0,-0.214 -0.174,-0.388 -0.388,-0.388 z"
           id="path732" />
        <path
           d="m 23.613,17.917 c -3.33,0 -6.04,2.71 -6.04,6.042 0,3.33 2.71,6.041 6.04,6.041 3.331,0 6.042,-2.711 6.042,-6.041 0,-3.332 -2.711,-6.042 -6.042,-6.042 z m 0,10.839 c -2.645,0 -4.797,-2.152 -4.797,-4.797 0,-2.646 2.152,-4.797 4.797,-4.797 2.646,0 4.798,2.15 4.798,4.797 10e-4,2.645 -2.152,4.797 -4.798,4.797 z"
           id="path734" />
        <path
           d="M 3.898,25.379 V 9.775 h 21.827 v 7.619 c 0.552,0.178 1.071,0.427 1.553,0.73 V 5.362 c 0,-0.571 -0.463,-1.036 -1.035,-1.036 h -3.781 v 1.987 c 0,0.806 -0.656,1.462 -1.462,1.462 h -0.432 c -0.807,0 -1.463,-0.656 -1.463,-1.462 V 4.326 h -8.586 v 1.987 c 0,0.806 -0.656,1.462 -1.462,1.462 H 8.625 C 7.818,7.775 7.161,7.119 7.161,6.313 V 4.326 H 3.38 c -0.572,0 -1.036,0.465 -1.036,1.036 v 20.534 c 0,0.571 0.463,1.035 1.036,1.035 H 17.4 c -0.235,-0.49 -0.419,-1.008 -0.535,-1.553 H 3.898 Z"
           id="path736" />
        <path
           d="m 23.553,19.699 c -0.39,0 -0.708,0.317 -0.708,0.707 v 3.224 l -2.062,2.061 c -0.134,0.133 -0.207,0.312 -0.207,0.501 0,0.188 0.073,0.367 0.207,0.501 0.134,0.133 0.312,0.206 0.501,0.206 0.188,0 0.366,-0.073 0.5,-0.207 l 2.269,-2.269 c 0.009,-0.01 0.012,-0.022 0.021,-0.032 0.053,-0.059 0.1,-0.123 0.131,-0.197 0.034,-0.082 0.05,-0.169 0.052,-0.256 0,-0.005 0.003,-0.01 0.003,-0.015 v -3.517 c 10e-4,-0.389 -0.317,-0.707 -0.707,-0.707 z"
           id="path738" />
      </g>
      <text
         x="0"
         y="47"
         fill="#000000"
         font-size="5px"
         font-weight="bold"
         font-family="'Helvetica Neue', Helvetica, Arial-Unicode, Arial, Sans-serif"
         id="text740" />
    </g>
  </g>
</svg>
